# xmcd
#
# Track frame offsets:
#	150
#	18024
#	35742
#	51464
#	67763
#	82451
#	100364
#	115218
#	132260
#	149641
#	170589
#	188016
#	203123
#	217067
#	234551
#	251468
#	269783
#	285196
#	304054
#	323129
#	338857
#
# Disc length: 4773 seconds
#
# Revision: 0
# Processed by: cddbd v1.5.2PL0 Copyright (c) Steve Scherf et al.
# Submitted via: audiograbber 1.83.01
#
DISCID=4512a315
DTITLE=Artists - Die Deutsche Superhitparade CD 1
DYEAR=1996
DGENRE=dtsch Schlager
TTITLE0=Meine Grosse Liebe /Die Amigos
TTITLE1=Sommerwein, Wie Die Liebe Süß Und Wild /Claudia Jung and Nik P
TTITLE2=Du Bist Mein Erster Gedanke /Semino Rossi
TTITLE3=Tanz Auf Dem Vulkan /Fernando Express
TTITLE4=Adiole My Love /G.G. Anderson
TTITLE5=Wolken Sie Ziehen Nach Süden /Die Amigos
TTITLE6=Laguna D'Amore /Die Flippers
TTITLE7=Toutes Les Femmes Sont Belles /Frank Michael
TTITLE8=Mein Leben Gehört Nur Dir /Roger Whittacker
TTITLE9=Ich Schenke Nur Dir Meine Liebe /Die Amigos
TTITLE10=Wie Viel Träume Hab Ich Geträumt /Andrea Berg
TTITLE11=Lass Ihn Los /Monika Martin
TTITLE12=Am Allerliebsten /Bernhard Brink
TTITLE13=Kommtanz Mit Mir /Die Amigos
TTITLE14=Lass Meine Sehnsucht Nicht Allein /Andrea Jürgens
TTITLE15=Sexy Warst Du Schon Immer /Roland Kaiser
TTITLE16=Manchmal Kommt Die Liebe Einfach So /Helene Fischer
TTITLE17=Das Korallenriff Von San Fernando /Die Amigos
TTITLE18=Einmal Zu Oft /Andreas Martin
TTITLE19=Vergiss Meinen Namen /Michelle
TTITLE20=Alle Engel Sind Amigos /Die Amigos
EXTD=Präsentiert von "Die Amigos and Semino Rossi
EXTT0=
EXTT1=
EXTT2=
EXTT3=
EXTT4=
EXTT5=
EXTT6=
EXTT7=
EXTT8=
EXTT9=
EXTT10=
EXTT11=
EXTT12=
EXTT13=
EXTT14=
EXTT15=
EXTT16=
EXTT17=
EXTT18=
EXTT19=
EXTT20=
PLAYORDER=
